<svg width="32" height="32" viewBox="0 0 32 32" fill="none" xmlns="http://www.w3.org/2000/svg">
<path d="M1 7C1 5.34315 2.34315 4 4 4H28C29.6569 4 31 5.34315 31 7V11.5H1V7Z" fill="#D90000"/>
<path d="M1 11.5H31V28C31 29.6569 29.6569 31 28 31H4C2.34315 31 1 29.6569 1 28V11.5Z" fill="white"/>
<path d="M1 11.2671V7.16678C1 4.50156 2.69811 3.83525 4.67925 3.83525H27.8868C30.1509 3.83525 31 5.37288 31 7.42305V11.2671M1 11.2671V27.4122C1 28.6081 1.73585 31 4.67925 31H27.3208C29.5849 31 31 29.9749 31 27.4122V11.2671M1 11.2671H31" stroke="black"/>
<path d="M7.50917 6.91078C2.69801 5.37293 6.3772 -2.31519 10.3394 2.81044L10.9547 3.83525M13.1697 6.91078C11.4795 6.37055 10.8721 5.07133 10.9547 3.83525M18.8301 6.91078C17.0973 6.17233 16.5025 4.80235 16.6226 3.57898M24.4905 6.91078C22.787 6.18482 22.1834 4.81642 22.2775 3.57898M22.2775 3.57898C22.4494 1.32131 24.9441 -0.500476 27.3207 2.81044L27.8867 3.81898M22.2775 3.57898L21.6603 2.81044C19.3061 -0.30524 16.8361 1.40549 16.6226 3.57898M16.6226 3.57898L15.9999 2.81044C13.6131 -0.514605 11.1073 1.55267 10.9547 3.83525" stroke="black" stroke-width="2"/>
<line x1="16" y1="28.5" x2="16" y2="22.5" stroke="black" stroke-width="6"/>
<path d="M16 13L21.6292 22.75H10.3708L16 13Z" fill="black"/>
</svg>
