<svg width="34" height="34" viewBox="0 0 34 34" fill="none" xmlns="http://www.w3.org/2000/svg">
<path d="M8.28766 24.225C9.49183 23.3042 10.8377 22.5781 12.3252 22.0469C13.8127 21.5156 15.371 21.25 17.0002 21.25C18.6293 21.25 20.1877 21.5156 21.6752 22.0469C23.1627 22.5781 24.5085 23.3042 25.7127 24.225C26.5391 23.2569 27.1825 22.159 27.6429 20.9313C28.1033 19.7035 28.3335 18.3931 28.3335 17C28.3335 13.8597 27.2297 11.1858 25.022 8.97813C22.8144 6.77049 20.1404 5.66667 17.0002 5.66667C13.8599 5.66667 11.1859 6.77049 8.97829 8.97813C6.77065 11.1858 5.66683 13.8597 5.66683 17C5.66683 18.3931 5.89704 19.7035 6.35745 20.9313C6.81787 22.159 7.46127 23.2569 8.28766 24.225ZM17.0002 18.4167C15.6071 18.4167 14.4325 17.9385 13.4762 16.9823C12.52 16.026 12.0418 14.8514 12.0418 13.4583C12.0418 12.0653 12.52 10.8906 13.4762 9.93438C14.4325 8.97813 15.6071 8.5 17.0002 8.5C18.3932 8.5 19.5679 8.97813 20.5241 9.93438C21.4804 10.8906 21.9585 12.0653 21.9585 13.4583C21.9585 14.8514 21.4804 16.026 20.5241 16.9823C19.5679 17.9385 18.3932 18.4167 17.0002 18.4167ZM17.0002 31.1667C15.0404 31.1667 13.1988 30.7948 11.4752 30.051C9.75155 29.3073 8.25225 28.2979 6.97725 27.0229C5.70225 25.7479 4.69287 24.2486 3.94912 22.525C3.20537 20.8014 2.8335 18.9597 2.8335 17C2.8335 15.0403 3.20537 13.1986 3.94912 11.475C4.69287 9.75139 5.70225 8.25209 6.97725 6.97709C8.25225 5.70209 9.75155 4.69271 11.4752 3.94896C13.1988 3.20521 15.0404 2.83334 17.0002 2.83334C18.9599 2.83334 20.8016 3.20521 22.5252 3.94896C24.2488 4.69271 25.7481 5.70209 27.0231 6.97709C28.2981 8.25209 29.3075 9.75139 30.0512 11.475C30.795 13.1986 31.1668 15.0403 31.1668 17C31.1668 18.9597 30.795 20.8014 30.0512 22.525C29.3075 24.2486 28.2981 25.7479 27.0231 27.0229C25.7481 28.2979 24.2488 29.3073 22.5252 30.051C20.8016 30.7948 18.9599 31.1667 17.0002 31.1667Z" fill="#1D1B20"/>
</svg>
